<svg data-v-423bf9ae="" xmlns="http://www.w3.org/2000/svg" viewBox="0 0 497 90" class="iconLeftSlogan"><!----><!----><!----><g data-v-423bf9ae="" id="7cf702f8-07e0-4270-8af6-c50c0e9af49c" fill="#22255B" transform="matrix(4.784689009770447,0,0,4.784689009770447,129.68955982135137,-10.382775993081829)"><path d="M4.63 12.46L4.63 12.46Q3.53 12.46 2.62 12.14L2.62 12.14L2.62 12.14Q1.71 11.82 1.16 11.15L1.16 11.15L1.16 11.15Q0.62 10.49 0.62 9.51L0.62 9.51L0.63 9.21L2.44 9.21L2.42 9.46L2.42 9.46Q2.42 10.16 3.02 10.56L3.02 10.56L3.02 10.56Q3.63 10.95 4.68 10.95L4.68 10.95L4.68 10.95Q5.80 10.95 6.34 10.63L6.34 10.63L6.34 10.63Q6.89 10.30 6.89 9.73L6.89 9.73L6.89 9.73Q6.89 9.28 6.57 8.99L6.57 8.99L6.57 8.99Q6.24 8.69 5.77 8.52L5.77 8.52L5.77 8.52Q5.29 8.34 4.42 8.11L4.42 8.11L4.42 8.11Q3.28 7.80 2.57 7.51L2.57 7.51L2.57 7.51Q1.86 7.22 1.36 6.66L1.36 6.66L1.36 6.66Q0.85 6.09 0.85 5.17L0.85 5.17L0.85 5.17Q0.85 3.88 1.92 3.20L1.92 3.20L1.92 3.20Q2.98 2.52 4.70 2.52L4.70 2.52L4.70 2.52Q6.36 2.52 7.40 3.21L7.40 3.21L7.40 3.21Q8.44 3.91 8.44 5.31L8.44 5.31L8.44 5.47L6.68 5.47L6.68 5.32L6.68 5.32Q6.68 4.72 6.14 4.38L6.14 4.38L6.14 4.38Q5.60 4.03 4.69 4.03L4.69 4.03L4.69 4.03Q3.74 4.03 3.20 4.31L3.20 4.31L3.20 4.31Q2.66 4.59 2.66 5.10L2.66 5.10L2.66 5.10Q2.66 5.47 2.97 5.73L2.97 5.73L2.97 5.73Q3.28 5.99 3.75 6.15L3.75 6.15L3.75 6.15Q4.21 6.31 5.01 6.52L5.01 6.52L5.01 6.52Q6.17 6.83 6.91 7.13L6.91 7.13L6.91 7.13Q7.64 7.42 8.17 7.99L8.17 7.99L8.17 7.99Q8.69 8.57 8.69 9.48L8.69 9.48L8.69 9.48Q8.69 11.02 7.60 11.74L7.60 11.74L7.60 11.74Q6.51 12.46 4.63 12.46L4.63 12.46ZM10.32 3.78L10.32 2.17L12.00 2.17L12.00 3.78L10.32 3.78ZM10.32 12.29L10.32 4.93L12.00 4.93L12.00 12.29L10.32 12.29ZM13.94 12.29L13.94 4.93L15.33 4.93L15.47 5.91L15.57 5.91L15.57 5.91Q15.93 5.38 16.47 5.07L16.47 5.07L16.47 5.07Q17.01 4.76 17.71 4.76L17.71 4.76L17.71 4.76Q19.12 4.76 19.63 5.91L19.63 5.91L19.74 5.91L19.74 5.91Q20.10 5.39 20.68 5.07L20.68 5.07L20.68 5.07Q21.25 4.76 21.95 4.76L21.95 4.76L21.95 4.76Q23.00 4.76 23.60 5.35L23.60 5.35L23.60 5.35Q24.21 5.94 24.21 7.22L24.21 7.22L24.21 12.29L22.53 12.29L22.53 7.56L22.53 7.56Q22.53 6.22 21.36 6.22L21.36 6.22L21.36 6.22Q20.75 6.22 20.34 6.72L20.34 6.72L20.34 6.72Q19.92 7.22 19.92 8.01L19.92 8.01L19.92 12.29L18.24 12.29L18.24 7.56L18.24 7.56Q18.24 6.22 17.08 6.22L17.08 6.22L17.08 6.22Q16.46 6.22 16.04 6.72L16.04 6.72L16.04 6.72Q15.62 7.22 15.62 8.01L15.62 8.01L15.62 12.29L13.94 12.29ZM26.12 14.71L26.12 4.93L27.51 4.93L27.65 5.91L27.73 5.91L27.73 5.91Q28.10 5.35 28.69 5.05L28.69 5.05L28.69 5.05Q29.27 4.76 29.99 4.76L29.99 4.76L29.99 4.76Q31.39 4.76 32.16 5.71L32.16 5.71L32.16 5.71Q32.93 6.66 32.93 8.62L32.93 8.62L32.93 8.62Q32.93 10.53 32.16 11.49L32.16 11.49L32.16 11.49Q31.39 12.46 30.10 12.46L30.10 12.46L30.10 12.46Q28.56 12.46 27.89 11.44L27.89 11.44L27.80 11.44L27.80 14.71L26.12 14.71ZM29.48 11.02L29.48 11.02Q30.41 11.02 30.80 10.46L30.80 10.46L30.80 10.46Q31.19 9.91 31.19 8.71L31.19 8.71L31.19 8.53L31.19 8.53Q31.19 7.31 30.80 6.75L30.80 6.75L30.80 6.75Q30.41 6.20 29.48 6.20L29.48 6.20L29.48 6.20Q28.62 6.20 28.21 6.79L28.21 6.79L28.21 6.79Q27.80 7.38 27.80 8.53L27.80 8.53L27.80 8.69L27.80 8.69Q27.80 9.84 28.21 10.43L28.21 10.43L28.21 10.43Q28.62 11.02 29.48 11.02L29.48 11.02ZM34.41 12.29L34.41 2.17L36.09 2.17L36.09 12.29L34.41 12.29ZM41.10 12.46L41.10 12.46Q39.31 12.46 38.44 11.52L38.44 11.52L38.44 11.52Q37.58 10.58 37.58 8.61L37.58 8.61L37.58 8.61Q37.58 6.64 38.45 5.70L38.45 5.70L38.45 5.70Q39.33 4.76 41.10 4.76L41.10 4.76L41.10 4.76Q42.73 4.76 43.53 5.67L43.53 5.67L43.53 5.67Q44.34 6.58 44.34 8.51L44.34 8.51L44.34 9.02L39.28 9.02L39.28 9.02Q39.33 10.11 39.75 10.62L39.75 10.62L39.75 10.62Q40.18 11.13 41.12 11.13L41.12 11.13L41.12 11.13Q41.82 11.13 42.25 10.77L42.25 10.77L42.25 10.77Q42.69 10.42 42.69 9.72L42.69 9.72L44.34 9.72L44.34 9.72Q44.34 11.07 43.44 11.77L43.44 11.77L43.44 11.77Q42.55 12.46 41.10 12.46L41.10 12.46ZM39.31 7.83L42.59 7.83L42.59 7.83Q42.59 6.09 41.10 6.09L41.10 6.09L41.10 6.09Q40.26 6.09 39.84 6.52L39.84 6.52L39.84 6.52Q39.41 6.94 39.31 7.83L39.31 7.83ZM45.84 12.29L45.84 2.69L50.46 2.69L50.46 2.69Q52.00 2.69 52.79 3.50L52.79 3.50L52.79 3.50Q53.59 4.31 53.59 5.75L53.59 5.75L53.59 5.75Q53.59 7.20 52.76 8.03L52.76 8.03L52.76 8.03Q51.93 8.86 50.36 8.86L50.36 8.86L47.63 8.86L47.63 12.29L45.84 12.29ZM47.63 7.34L50.30 7.34L50.30 7.34Q51.00 7.34 51.39 6.92L51.39 6.92L51.39 6.92Q51.79 6.50 51.79 5.75L51.79 5.75L51.79 5.75Q51.79 5.03 51.41 4.62L51.41 4.62L51.41 4.62Q51.03 4.21 50.30 4.21L50.30 4.21L47.63 4.21L47.63 7.34ZM58.32 12.46L58.32 12.46Q56.50 12.46 55.60 11.52L55.60 11.52L55.60 11.52Q54.70 10.58 54.70 8.61L54.70 8.61L54.70 8.61Q54.70 6.64 55.60 5.70L55.60 5.70L55.60 5.70Q56.50 4.76 58.32 4.76L58.32 4.76L58.32 4.76Q60.14 4.76 61.05 5.70L61.05 5.70L61.05 5.70Q61.95 6.64 61.95 8.61L61.95 8.61L61.95 8.61Q61.95 10.58 61.05 11.52L61.05 11.52L61.05 11.52Q60.14 12.46 58.32 12.46L58.32 12.46ZM58.32 11.09L58.32 11.09Q59.32 11.09 59.77 10.51L59.77 10.51L59.77 10.51Q60.21 9.93 60.21 8.71L60.21 8.71L60.21 8.51L60.21 8.51Q60.21 7.29 59.77 6.71L59.77 6.71L59.77 6.71Q59.32 6.13 58.32 6.13L58.32 6.13L58.32 6.13Q57.32 6.13 56.88 6.71L56.88 6.71L56.88 6.71Q56.43 7.29 56.43 8.51L56.43 8.51L56.43 8.71L56.43 8.71Q56.43 9.93 56.88 10.51L56.88 10.51L56.88 10.51Q57.32 11.09 58.32 11.09L58.32 11.09ZM63.45 12.29L63.45 2.17L65.13 2.17L65.13 12.29L63.45 12.29ZM67.07 12.29L67.07 2.17L68.75 2.17L68.75 12.29L67.07 12.29ZM73.49 12.46L73.49 12.46Q71.96 12.46 71.13 11.83L71.13 11.83L71.13 11.83Q70.29 11.20 70.29 10.19L70.29 10.19L70.29 10.19Q70.29 10.07 70.30 10.02L70.30 10.02L70.30 10.02Q70.31 9.98 70.31 9.97L70.31 9.97L71.95 9.97L71.95 10.08L71.95 10.08Q71.96 10.63 72.42 10.88L72.42 10.88L72.42 10.88Q72.87 11.14 73.56 11.14L73.56 11.14L73.56 11.14Q74.17 11.14 74.61 10.94L74.61 10.94L74.61 10.94Q75.04 10.74 75.04 10.33L75.04 10.33L75.04 10.33Q75.04 10.01 74.80 9.81L74.80 9.81L74.80 9.81Q74.56 9.60 74.21 9.48L74.21 9.48L74.21 9.48Q73.86 9.37 73.22 9.21L73.22 9.21L73.22 9.21Q72.35 9.00 71.80 8.79L71.80 8.79L71.80 8.79Q71.25 8.58 70.85 8.13L70.85 8.13L70.85 8.13Q70.46 7.69 70.46 6.96L70.46 6.96L70.46 6.96Q70.46 5.91 71.33 5.33L71.33 5.33L71.33 5.33Q72.20 4.76 73.58 4.76L73.58 4.76L73.58 4.76Q74.44 4.76 75.11 5.01L75.11 5.01L75.11 5.01Q75.78 5.26 76.15 5.72L76.15 5.72L76.15 5.72Q76.52 6.17 76.52 6.76L76.52 6.76L76.51 7.07L74.87 7.07L74.87 7.01L74.87 7.01Q74.87 6.58 74.52 6.33L74.52 6.33L74.52 6.33Q74.16 6.09 73.49 6.09L73.49 6.09L73.49 6.09Q72.83 6.09 72.49 6.29L72.49 6.29L72.49 6.29Q72.16 6.50 72.16 6.82L72.16 6.82L72.16 6.82Q72.16 7.21 72.57 7.40L72.57 7.40L72.57 7.40Q72.98 7.59 73.84 7.77L73.84 7.77L73.84 7.77Q74.76 7.98 75.33 8.20L75.33 8.20L75.33 8.20Q75.89 8.41 76.31 8.88L76.31 8.88L76.31 8.88Q76.73 9.34 76.73 10.12L76.73 10.12L76.73 10.12Q76.73 11.34 75.86 11.90L75.86 11.90L75.86 11.90Q74.98 12.46 73.49 12.46L73.49 12.46Z"></path></g><defs data-v-423bf9ae=""><linearGradient data-v-423bf9ae="" gradientTransform="rotate(25)" id="6c1a16d9-c7ed-4eb5-85f4-70f9465c13ad" x1="0%" y1="0%" x2="100%" y2="0%"><stop data-v-423bf9ae="" offset="0%" style="stop-color: rgb(81, 6, 255); stop-opacity: 1;"></stop><stop data-v-423bf9ae="" offset="100%" style="stop-color: rgb(97, 203, 242); stop-opacity: 1;"></stop></linearGradient></defs><g data-v-423bf9ae="" id="592a30fc-366e-4b3d-ba6a-c0c9ee0fe784" transform="matrix(1.564645854115842,0,0,1.564645854115842,-21.232503217664686,-34.69267312938838)" stroke="none" fill="url(#6c1a16d9-c7ed-4eb5-85f4-70f9465c13ad)"><path d="M64.331 72.809H21.19v-43.14h38.347l7.19-7.19H21.189c-7.19 0-7.19 7.19-7.19 7.19v43.14C14 80 21.19 80 21.19 80h43.141c7.19 0 7.19-7.191 7.19-7.191V48.842l-7.19 7.191v16.776z"></path><path d="M85.459 29.372l-13.57-4.415c-.362 0-.725.137-.905.345-1.628 1.517-9.139 8.692-13.302 13.934-3.075 3.795-6.331 9.592-7.959 12.282-.272.275-.906.414-1.36.414-.36 0-1.175-.691-1.355-.966-1.808-2.209-4.884-5.932-7.779-8.761-2.173-2.208-4.435-3.866-6.424-5.589-.273-.208-.545-.275-.999-.275-.629 0-1.263.413-1.263.965l-2.262 8.76c0 .413.18.829.542 1.104 1.808 1.517 6.965 5.729 9.226 8.418 4.255 4.896 7.239 8.828 8.598 10.9.088.203 1.355 1.447 1.628 1.447.36 0 1.086-.551 1.266-.76C52.437 63.658 60.488 52.205 68 44.824c7.418-7.313 14.563-12.141 17.911-14.762 0-.07.089-.14.089-.278 0-.204-.267-.412-.541-.412z"></path></g><!----><g data-v-423bf9ae="" id="ab36da5c-2080-4c34-b5a7-4acc578db107" fill="#22255B" transform="matrix(0.46247284762690544,0,0,0.46247284762690544,132.36469649894306,57.37315609660964)"><path d="M6.59 9.21L6.59 8.71L6.59 8.71Q6.59 8.23 6.41 7.87L6.41 7.87L6.41 7.87Q6.22 7.50 5.89 7.27L5.89 7.27L5.89 7.27Q5.57 7.03 5.15 6.90L5.15 6.90L5.15 6.90Q4.73 6.78 4.27 6.78L4.27 6.78L4.27 6.78Q3.86 6.78 3.50 6.88L3.50 6.88L3.50 6.88Q3.14 6.99 2.85 7.18L2.85 7.18L2.85 7.18Q2.56 7.38 2.39 7.66L2.39 7.66L2.39 7.66Q2.23 7.95 2.23 8.33L2.23 8.33L2.23 8.41L2.23 8.41Q2.23 8.82 2.39 9.11L2.39 9.11L2.39 9.11Q2.56 9.39 2.89 9.60L2.89 9.60L2.89 9.60Q3.22 9.80 3.71 9.93L3.71 9.93L3.71 9.93Q4.20 10.07 4.86 10.16L4.86 10.16L4.86 10.16Q6.40 10.40 7.13 11.07L7.13 11.07L7.13 11.07Q7.85 11.73 7.85 12.85L7.85 12.85L7.85 13.02L7.85 13.02Q7.85 13.65 7.64 14.17L7.64 14.17L7.64 14.17Q7.42 14.70 6.99 15.08L6.99 15.08L6.99 15.08Q6.57 15.46 5.94 15.67L5.94 15.67L5.94 15.67Q5.31 15.88 4.48 15.88L4.48 15.88L4.48 15.88Q3.54 15.88 2.82 15.60L2.82 15.60L2.82 15.60Q2.10 15.33 1.62 14.85L1.62 14.85L1.62 14.85Q1.13 14.36 0.88 13.71L0.88 13.71L0.88 13.71Q0.63 13.06 0.63 12.29L0.63 12.29L0.63 11.87L1.81 11.87L1.81 12.21L1.81 12.21Q1.81 13.50 2.51 14.14L2.51 14.14L2.51 14.14Q3.22 14.78 4.48 14.78L4.48 14.78L4.48 14.78Q5.57 14.78 6.13 14.30L6.13 14.30L6.13 14.30Q6.68 13.82 6.68 13.02L6.68 13.02L6.68 12.94L6.68 12.94Q6.68 12.17 6.11 11.76L6.11 11.76L6.11 11.76Q5.54 11.35 4.27 11.17L4.27 11.17L4.27 11.17Q3.53 11.07 2.93 10.87L2.93 10.87L2.93 10.87Q2.34 10.67 1.92 10.34L1.92 10.34L1.92 10.34Q1.50 10.01 1.27 9.55L1.27 9.55L1.27 9.55Q1.05 9.09 1.05 8.46L1.05 8.46L1.05 8.29L1.05 8.29Q1.05 7.71 1.29 7.24L1.29 7.24L1.29 7.24Q1.53 6.76 1.95 6.41L1.95 6.41L1.95 6.41Q2.38 6.06 2.98 5.87L2.98 5.87L2.98 5.87Q3.57 5.68 4.28 5.68L4.28 5.68L4.28 5.68Q5.11 5.68 5.76 5.92L5.76 5.92L5.76 5.92Q6.41 6.16 6.86 6.56L6.86 6.56L6.86 6.56Q7.31 6.96 7.54 7.50L7.54 7.50L7.54 7.50Q7.77 8.04 7.77 8.62L7.77 8.62L7.77 9.21L6.59 9.21ZM16.41 6.97L16.41 5.88L23.30 5.88L23.30 6.97L20.44 6.97L20.44 15.68L19.26 15.68L19.26 6.97L16.41 6.97ZM38.49 12.15L38.49 15.68L37.31 15.68L37.31 12.40L37.31 12.40Q37.31 12.04 37.14 11.84L37.14 11.84L37.14 11.84Q36.97 11.65 36.55 11.65L36.55 11.65L33.50 11.65L33.50 15.68L32.33 15.68L32.33 5.88L35.83 5.88L35.83 5.88Q36.58 5.88 37.14 6.10L37.14 6.10L37.14 6.10Q37.70 6.31 38.07 6.68L38.07 6.68L38.07 6.68Q38.44 7.04 38.63 7.53L38.63 7.53L38.63 7.53Q38.82 8.01 38.82 8.54L38.82 8.54L38.82 8.96L38.82 8.96Q38.82 9.51 38.52 10.05L38.52 10.05L38.52 10.05Q38.22 10.60 37.59 10.89L37.59 10.89L37.59 11.06L37.59 11.06Q38.01 11.13 38.25 11.40L38.25 11.40L38.25 11.40Q38.49 11.66 38.49 12.15L38.49 12.15ZM33.50 6.97L33.50 10.56L35.69 10.56L35.69 10.56Q36.68 10.56 37.16 10.13L37.16 10.13L37.16 10.13Q37.65 9.70 37.65 8.88L37.65 8.88L37.65 8.62L37.65 8.62Q37.65 7.88 37.16 7.43L37.16 7.43L37.16 7.43Q36.68 6.97 35.69 6.97L35.69 6.97L33.50 6.97ZM48.02 15.68L48.02 5.88L53.96 5.88L53.96 6.97L49.20 6.97L49.20 10.22L53.87 10.22L53.87 11.31L49.20 11.31L49.20 14.59L54.04 14.59L54.04 15.68L48.02 15.68ZM69.37 15.68L68.66 13.24L64.46 13.24L63.74 15.68L62.48 15.68L65.45 5.88L67.66 5.88L70.63 15.68L69.37 15.68ZM66.64 6.38L66.47 6.38L64.78 12.15L68.33 12.15L66.64 6.38ZM78.48 15.68L78.48 5.88L80.72 5.88L82.04 15.18L82.21 15.18L83.52 5.88L85.76 5.88L85.76 15.68L84.67 15.68L84.67 6.38L84.50 6.38L83.19 15.68L81.06 15.68L79.74 6.38L79.58 6.38L79.58 15.68L78.48 15.68ZM94.63 15.68L94.63 5.88L95.80 5.88L95.80 14.59L100.93 14.59L100.93 15.68L94.63 15.68ZM110.15 6.97L110.15 5.88L116.37 5.88L116.37 6.97L113.85 6.97L113.85 14.59L116.37 14.59L116.37 15.68L110.15 15.68L110.15 14.59L112.67 14.59L112.67 6.97L110.15 6.97ZM127.92 5.88L130.75 15.18L130.91 15.18L130.91 5.88L132.09 5.88L132.09 15.68L129.74 15.68L126.91 6.38L126.74 6.38L126.74 15.68L125.57 15.68L125.57 5.88L127.92 5.88ZM141.29 6.97L141.29 5.88L147.50 5.88L147.50 6.97L144.98 6.97L144.98 14.59L147.50 14.59L147.50 15.68L141.29 15.68L141.29 14.59L143.81 14.59L143.81 6.97L141.29 6.97ZM159.05 5.88L161.88 15.18L162.05 15.18L162.05 5.88L163.23 5.88L163.23 15.68L160.87 15.68L158.05 6.38L157.88 6.38L157.88 15.68L156.70 15.68L156.70 5.88L159.05 5.88ZM174.59 12.07L174.59 10.98L178.96 10.98L178.96 15.68L177.87 15.68L177.87 14.50L177.70 14.50L177.70 14.50Q177.46 15.12 176.86 15.50L176.86 15.50L176.86 15.50Q176.26 15.88 175.46 15.88L175.46 15.88L175.46 15.88Q173.88 15.88 172.98 14.85L172.98 14.85L172.98 14.85Q172.07 13.83 172.07 11.87L172.07 11.87L172.07 9.69L172.07 9.69Q172.07 7.78 172.98 6.73L172.98 6.73L172.98 6.73Q173.89 5.68 175.52 5.68L175.52 5.68L175.52 5.68Q176.36 5.68 177.00 5.96L177.00 5.96L177.00 5.96Q177.65 6.23 178.08 6.71L178.08 6.71L178.08 6.71Q178.51 7.20 178.74 7.85L178.74 7.85L178.74 7.85Q178.96 8.50 178.96 9.24L178.96 9.24L178.96 9.41L177.79 9.41L177.79 9.24L177.79 9.24Q177.79 8.76 177.65 8.32L177.65 8.32L177.65 8.32Q177.52 7.87 177.25 7.53L177.25 7.53L177.25 7.53Q176.97 7.18 176.55 6.98L176.55 6.98L176.55 6.98Q176.12 6.78 175.52 6.78L175.52 6.78L175.52 6.78Q174.38 6.78 173.82 7.60L173.82 7.60L173.82 7.60Q173.25 8.43 173.25 9.77L173.25 9.77L173.25 11.79L173.25 11.79Q173.25 13.23 173.82 14.01L173.82 14.01L173.82 14.01Q174.38 14.78 175.55 14.78L175.55 14.78L175.55 14.78Q176.60 14.78 177.19 14.11L177.19 14.11L177.19 14.11Q177.79 13.44 177.79 12.24L177.79 12.24L177.79 12.07L174.59 12.07ZM206.08 15.68L206.08 12.24L205.83 12.24L202.76 5.88L204.08 5.88L206.58 11.23L206.75 11.23L209.26 5.88L210.57 5.88L207.51 12.24L207.26 12.24L207.26 15.68L206.08 15.68ZM218.79 11.87L218.79 9.69L218.79 9.69Q218.79 7.78 219.70 6.73L219.70 6.73L219.70 6.73Q220.61 5.68 222.24 5.68L222.24 5.68L222.24 5.68Q223.86 5.68 224.77 6.73L224.77 6.73L224.77 6.73Q225.68 7.78 225.68 9.69L225.68 9.69L225.68 11.87L225.68 11.87Q225.68 13.83 224.77 14.85L224.77 14.85L224.77 14.85Q223.86 15.88 222.24 15.88L222.24 15.88L222.24 15.88Q220.61 15.88 219.70 14.85L219.70 14.85L219.70 14.85Q218.79 13.83 218.79 11.87L218.79 11.87ZM222.24 14.78L222.24 14.78L222.24 14.78Q223.37 14.78 223.94 14.01L223.94 14.01L223.94 14.01Q224.50 13.23 224.50 11.79L224.50 11.79L224.50 9.77L224.50 9.77Q224.50 8.43 223.94 7.60L223.94 7.60L223.94 7.60Q223.37 6.78 222.24 6.78L222.24 6.78L222.24 6.78Q221.10 6.78 220.54 7.60L220.54 7.60L220.54 7.60Q219.97 8.43 219.97 9.77L219.97 9.77L219.97 11.79L219.97 11.79Q219.97 13.23 220.54 14.01L220.54 14.01L220.54 14.01Q221.10 14.78 222.24 14.78ZM234.44 5.88L235.62 5.88L235.62 12.38L235.62 12.38Q235.62 13.57 236.17 14.17L236.17 14.17L236.17 14.17Q236.73 14.78 237.80 14.78L237.80 14.78L237.80 14.78Q238.88 14.78 239.44 14.17L239.44 14.17L239.44 14.17Q239.99 13.57 239.99 12.38L239.99 12.38L239.99 5.88L241.16 5.88L241.16 12.38L241.16 12.38Q241.16 14.08 240.27 14.98L240.27 14.98L240.27 14.98Q239.37 15.88 237.80 15.88L237.80 15.88L237.80 15.88Q236.24 15.88 235.34 14.98L235.34 14.98L235.34 14.98Q234.44 14.08 234.44 12.38L234.44 12.38L234.44 5.88ZM256.44 12.15L256.44 15.68L255.26 15.68L255.26 12.40L255.26 12.40Q255.26 12.04 255.09 11.84L255.09 11.84L255.09 11.84Q254.93 11.65 254.51 11.65L254.51 11.65L251.45 11.65L251.45 15.68L250.28 15.68L250.28 5.88L253.78 5.88L253.78 5.88Q254.53 5.88 255.09 6.10L255.09 6.10L255.09 6.10Q255.65 6.31 256.03 6.68L256.03 6.68L256.03 6.68Q256.40 7.04 256.59 7.53L256.59 7.53L256.59 7.53Q256.77 8.01 256.77 8.54L256.77 8.54L256.77 8.96L256.77 8.96Q256.77 9.51 256.47 10.05L256.47 10.05L256.47 10.05Q256.17 10.60 255.54 10.89L255.54 10.89L255.54 11.06L255.54 11.06Q255.96 11.13 256.20 11.40L256.20 11.40L256.20 11.40Q256.44 11.66 256.44 12.15L256.44 12.15ZM251.45 6.97L251.45 10.56L253.64 10.56L253.64 10.56Q254.63 10.56 255.12 10.13L255.12 10.13L255.12 10.13Q255.60 9.70 255.60 8.88L255.60 8.88L255.60 8.62L255.60 8.62Q255.60 7.88 255.12 7.43L255.12 7.43L255.12 7.43Q254.63 6.97 253.64 6.97L253.64 6.97L251.45 6.97ZM281.25 6.97L281.25 5.88L284.47 5.88L284.47 5.88Q286.29 5.88 287.13 6.75L287.13 6.75L287.13 6.75Q287.97 7.62 287.97 9.52L287.97 9.52L287.97 12.04L287.97 12.04Q287.97 13.94 287.13 14.81L287.13 14.81L287.13 14.81Q286.29 15.68 284.47 15.68L284.47 15.68L281.25 15.68L281.25 14.57L282.09 14.57L282.09 6.97L281.25 6.97ZM283.26 14.59L284.30 14.59L284.30 14.59Q284.94 14.59 285.41 14.46L285.41 14.46L285.41 14.46Q285.88 14.34 286.19 14.04L286.19 14.04L286.19 14.04Q286.50 13.73 286.64 13.23L286.64 13.23L286.64 13.23Q286.79 12.73 286.79 11.96L286.79 11.96L286.79 9.60L286.79 9.60Q286.79 8.83 286.64 8.33L286.64 8.33L286.64 8.33Q286.50 7.83 286.19 7.53L286.19 7.53L286.19 7.53Q285.88 7.22 285.41 7.10L285.41 7.10L285.41 7.10Q284.94 6.97 284.30 6.97L284.30 6.97L283.26 6.97L283.26 14.59ZM297.11 15.68L297.11 5.88L303.04 5.88L303.04 6.97L298.28 6.97L298.28 10.22L302.96 10.22L302.96 11.31L298.28 11.31L298.28 14.59L303.13 14.59L303.13 15.68L297.11 15.68ZM315.70 14.78L315.70 14.78L315.70 14.78Q316.30 14.78 316.73 14.58L316.73 14.58L316.73 14.58Q317.16 14.38 317.43 14.04L317.43 14.04L317.43 14.04Q317.70 13.69 317.84 13.25L317.84 13.25L317.84 13.25Q317.97 12.81 317.97 12.32L317.97 12.32L317.97 12.15L319.14 12.15L319.14 12.32L319.14 12.32Q319.14 13.06 318.92 13.71L318.92 13.71L318.92 13.71Q318.70 14.36 318.26 14.85L318.26 14.85L318.26 14.85Q317.83 15.33 317.18 15.60L317.18 15.60L317.18 15.60Q316.54 15.88 315.70 15.88L315.70 15.88L315.70 15.88Q314.08 15.88 313.17 14.85L313.17 14.85L313.17 14.85Q312.26 13.83 312.26 11.87L312.26 11.87L312.26 9.69L312.26 9.69Q312.26 7.78 313.17 6.73L313.17 6.73L313.17 6.73Q314.08 5.68 315.70 5.68L315.70 5.68L315.70 5.68Q316.54 5.68 317.18 5.96L317.18 5.96L317.18 5.96Q317.83 6.23 318.26 6.71L318.26 6.71L318.26 6.71Q318.70 7.20 318.92 7.85L318.92 7.85L318.92 7.85Q319.14 8.50 319.14 9.24L319.14 9.24L319.14 9.41L317.97 9.41L317.97 9.24L317.97 9.24Q317.95 8.76 317.82 8.32L317.82 8.32L317.82 8.32Q317.69 7.87 317.42 7.53L317.42 7.53L317.42 7.53Q317.14 7.18 316.72 6.98L316.72 6.98L316.72 6.98Q316.30 6.78 315.70 6.78L315.70 6.78L315.70 6.78Q314.57 6.78 314.00 7.60L314.00 7.60L314.00 7.60Q313.43 8.43 313.43 9.77L313.43 9.77L313.43 11.79L313.43 11.79Q313.43 13.23 314.00 14.01L314.00 14.01L314.00 14.01Q314.57 14.78 315.70 14.78ZM328.10 6.97L328.10 5.88L334.32 5.88L334.32 6.97L331.80 6.97L331.80 14.59L334.32 14.59L334.32 15.68L328.10 15.68L328.10 14.59L330.62 14.59L330.62 6.97L328.10 6.97ZM349.09 9.21L349.09 8.71L349.09 8.71Q349.09 8.23 348.90 7.87L348.90 7.87L348.90 7.87Q348.71 7.50 348.39 7.27L348.39 7.27L348.39 7.27Q348.07 7.03 347.65 6.90L347.65 6.90L347.65 6.90Q347.23 6.78 346.77 6.78L346.77 6.78L346.77 6.78Q346.36 6.78 346.00 6.88L346.00 6.88L346.00 6.88Q345.63 6.99 345.34 7.18L345.34 7.18L345.34 7.18Q345.06 7.38 344.89 7.66L344.89 7.66L344.89 7.66Q344.72 7.95 344.72 8.33L344.72 8.33L344.72 8.41L344.72 8.41Q344.72 8.82 344.89 9.11L344.89 9.11L344.89 9.11Q345.06 9.39 345.39 9.60L345.39 9.60L345.39 9.60Q345.72 9.80 346.21 9.93L346.21 9.93L346.21 9.93Q346.70 10.07 347.35 10.16L347.35 10.16L347.35 10.16Q348.89 10.40 349.62 11.07L349.62 11.07L349.62 11.07Q350.35 11.73 350.35 12.85L350.35 12.85L350.35 13.02L350.35 13.02Q350.35 13.65 350.13 14.17L350.13 14.17L350.13 14.17Q349.92 14.70 349.49 15.08L349.49 15.08L349.49 15.08Q349.06 15.46 348.43 15.67L348.43 15.67L348.43 15.67Q347.80 15.88 346.98 15.88L346.98 15.88L346.98 15.88Q346.04 15.88 345.32 15.60L345.32 15.60L345.32 15.60Q344.60 15.33 344.11 14.85L344.11 14.85L344.11 14.85Q343.63 14.36 343.38 13.71L343.38 13.71L343.38 13.71Q343.13 13.06 343.13 12.29L343.13 12.29L343.13 11.87L344.30 11.87L344.30 12.21L344.30 12.21Q344.30 13.50 345.01 14.14L345.01 14.14L345.01 14.14Q345.72 14.78 346.98 14.78L346.98 14.78L346.98 14.78Q348.07 14.78 348.62 14.30L348.62 14.30L348.62 14.30Q349.17 13.82 349.17 13.02L349.17 13.02L349.17 12.94L349.17 12.94Q349.17 12.17 348.61 11.76L348.61 11.76L348.61 11.76Q348.04 11.35 346.77 11.17L346.77 11.17L346.77 11.17Q346.02 11.07 345.43 10.87L345.43 10.87L345.43 10.87Q344.83 10.67 344.41 10.34L344.41 10.34L344.41 10.34Q343.99 10.01 343.77 9.55L343.77 9.55L343.77 9.55Q343.55 9.09 343.55 8.46L343.55 8.46L343.55 8.29L343.55 8.29Q343.55 7.71 343.78 7.24L343.78 7.24L343.78 7.24Q344.02 6.76 344.45 6.41L344.45 6.41L344.45 6.41Q344.88 6.06 345.47 5.87L345.47 5.87L345.47 5.87Q346.07 5.68 346.78 5.68L346.78 5.68L346.78 5.68Q347.61 5.68 348.26 5.92L348.26 5.92L348.26 5.92Q348.91 6.16 349.36 6.56L349.36 6.56L349.36 6.56Q349.80 6.96 350.03 7.50L350.03 7.50L350.03 7.50Q350.27 8.04 350.27 8.62L350.27 8.62L350.27 9.21L349.09 9.21ZM359.24 6.97L359.24 5.88L365.46 5.88L365.46 6.97L362.94 6.97L362.94 14.59L365.46 14.59L365.46 15.68L359.24 15.68L359.24 14.59L361.76 14.59L361.76 6.97L359.24 6.97ZM374.47 11.87L374.47 9.69L374.47 9.69Q374.47 7.78 375.38 6.73L375.38 6.73L375.38 6.73Q376.29 5.68 377.92 5.68L377.92 5.68L377.92 5.68Q379.54 5.68 380.45 6.73L380.45 6.73L380.45 6.73Q381.36 7.78 381.36 9.69L381.36 9.69L381.36 11.87L381.36 11.87Q381.36 13.83 380.45 14.85L380.45 14.85L380.45 14.85Q379.54 15.88 377.92 15.88L377.92 15.88L377.92 15.88Q376.29 15.88 375.38 14.85L375.38 14.85L375.38 14.85Q374.47 13.83 374.47 11.87L374.47 11.87ZM377.92 14.78L377.92 14.78L377.92 14.78Q379.05 14.78 379.62 14.01L379.62 14.01L379.62 14.01Q380.18 13.23 380.18 11.79L380.18 11.79L380.18 9.77L380.18 9.77Q380.18 8.43 379.62 7.60L379.62 7.60L379.62 7.60Q379.05 6.78 377.92 6.78L377.92 6.78L377.92 6.78Q376.78 6.78 376.21 7.60L376.21 7.60L376.21 7.60Q375.65 8.43 375.65 9.77L375.65 9.77L375.65 11.79L375.65 11.79Q375.65 13.23 376.21 14.01L376.21 14.01L376.21 14.01Q376.78 14.78 377.92 14.78ZM392.57 5.88L395.40 15.18L395.57 15.18L395.57 5.88L396.75 5.88L396.75 15.68L394.39 15.68L391.57 6.38L391.40 6.38L391.40 15.68L390.22 15.68L390.22 5.88L392.57 5.88ZM406.95 12.54L406.95 11.54L411.15 11.54L411.15 12.54L406.95 12.54ZM420.98 15.68L420.98 5.88L423.22 5.88L424.54 15.18L424.70 15.18L426.02 5.88L428.26 5.88L428.26 15.68L427.17 15.68L427.17 6.38L427.00 6.38L425.68 15.68L423.56 15.68L422.24 6.38L422.07 6.38L422.07 15.68L420.98 15.68ZM443.00 15.68L442.29 13.24L438.09 13.24L437.37 15.68L436.11 15.68L439.08 5.88L441.29 5.88L444.26 15.68L443.00 15.68ZM440.27 6.38L440.10 6.38L438.41 12.15L441.97 12.15L440.27 6.38ZM453.89 11.31L453.89 15.68L452.72 15.68L452.72 5.88L453.89 5.88L453.89 10.22L454.22 10.22L457.98 5.88L459.44 5.88L459.44 5.96L455.38 10.70L455.38 10.86L459.61 15.60L459.61 15.68L458.12 15.68L454.22 11.31L453.89 11.31ZM468.22 6.97L468.22 5.88L474.43 5.88L474.43 6.97L471.91 6.97L471.91 14.59L474.43 14.59L474.43 15.68L468.22 15.68L468.22 14.59L470.74 14.59L470.74 6.97L468.22 6.97ZM485.98 5.88L488.81 15.18L488.98 15.18L488.98 5.88L490.15 5.88L490.15 15.68L487.80 15.68L484.97 6.38L484.81 6.38L484.81 15.68L483.63 15.68L483.63 5.88L485.98 5.88ZM501.52 12.07L501.52 10.98L505.89 10.98L505.89 15.68L504.80 15.68L504.80 14.50L504.63 14.50L504.63 14.50Q504.39 15.12 503.79 15.50L503.79 15.50L503.79 15.50Q503.19 15.88 502.39 15.88L502.39 15.88L502.39 15.88Q500.81 15.88 499.90 14.85L499.90 14.85L499.90 14.85Q499.00 13.83 499.00 11.87L499.00 11.87L499.00 9.69L499.00 9.69Q499.00 7.78 499.91 6.73L499.91 6.73L499.91 6.73Q500.82 5.68 502.45 5.68L502.45 5.68L502.45 5.68Q503.29 5.68 503.93 5.96L503.93 5.96L503.93 5.96Q504.57 6.23 505.01 6.71L505.01 6.71L505.01 6.71Q505.44 7.20 505.67 7.85L505.67 7.85L505.67 7.85Q505.89 8.50 505.89 9.24L505.89 9.24L505.89 9.41L504.71 9.41L504.71 9.24L504.71 9.24Q504.71 8.76 504.58 8.32L504.58 8.32L504.58 8.32Q504.45 7.87 504.17 7.53L504.17 7.53L504.17 7.53Q503.90 7.18 503.47 6.98L503.47 6.98L503.47 6.98Q503.05 6.78 502.45 6.78L502.45 6.78L502.45 6.78Q501.31 6.78 500.74 7.60L500.74 7.60L500.74 7.60Q500.18 8.43 500.18 9.77L500.18 9.77L500.18 11.79L500.18 11.79Q500.18 13.23 500.74 14.01L500.74 14.01L500.74 14.01Q501.31 14.78 502.47 14.78L502.47 14.78L502.47 14.78Q503.52 14.78 504.12 14.11L504.12 14.11L504.12 14.11Q504.71 13.44 504.71 12.24L504.71 12.24L504.71 12.07L501.52 12.07ZM534.00 11.65L531.68 11.65L531.68 15.68L530.50 15.68L530.50 5.88L534.00 5.88L534.00 5.88Q534.76 5.88 535.32 6.10L535.32 6.10L535.32 6.10Q535.88 6.31 536.25 6.68L536.25 6.68L536.25 6.68Q536.62 7.04 536.81 7.53L536.81 7.53L536.81 7.53Q537.00 8.01 537.00 8.54L537.00 8.54L537.00 8.96L537.00 8.96Q537.00 9.49 536.81 9.98L536.81 9.98L536.81 9.98Q536.62 10.47 536.24 10.84L536.24 10.84L536.24 10.84Q535.86 11.21 535.30 11.43L535.30 11.43L535.30 11.43Q534.74 11.65 534.00 11.65L534.00 11.65ZM531.68 6.97L531.68 10.56L533.86 10.56L533.86 10.56Q535.82 10.56 535.82 8.88L535.82 8.88L535.82 8.62L535.82 8.62Q535.82 7.88 535.34 7.43L535.34 7.43L535.34 7.43Q534.86 6.97 533.86 6.97L533.86 6.97L531.68 6.97ZM552.23 12.15L552.23 15.68L551.05 15.68L551.05 12.40L551.05 12.40Q551.05 12.04 550.89 11.84L550.89 11.84L550.89 11.84Q550.72 11.65 550.30 11.65L550.30 11.65L547.25 11.65L547.25 15.68L546.07 15.68L546.07 5.88L549.57 5.88L549.57 5.88Q550.33 5.88 550.89 6.10L550.89 6.10L550.89 6.10Q551.45 6.31 551.82 6.68L551.82 6.68L551.82 6.68Q552.19 7.04 552.38 7.53L552.38 7.53L552.38 7.53Q552.57 8.01 552.57 8.54L552.57 8.54L552.57 8.96L552.57 8.96Q552.57 9.51 552.26 10.05L552.26 10.05L552.26 10.05Q551.96 10.60 551.33 10.89L551.33 10.89L551.33 11.06L551.33 11.06Q551.75 11.13 551.99 11.40L551.99 11.40L551.99 11.40Q552.23 11.66 552.23 12.15L552.23 12.15ZM547.25 6.97L547.25 10.56L549.43 10.56L549.43 10.56Q550.42 10.56 550.91 10.13L550.91 10.13L550.91 10.13Q551.39 9.70 551.39 8.88L551.39 8.88L551.39 8.62L551.39 8.62Q551.39 7.88 550.91 7.43L550.91 7.43L550.91 7.43Q550.42 6.97 549.43 6.97L549.43 6.97L547.25 6.97ZM561.29 11.87L561.29 9.69L561.29 9.69Q561.29 7.78 562.20 6.73L562.20 6.73L562.20 6.73Q563.11 5.68 564.73 5.68L564.73 5.68L564.73 5.68Q566.36 5.68 567.27 6.73L567.27 6.73L567.27 6.73Q568.18 7.78 568.18 9.69L568.18 9.69L568.18 11.87L568.18 11.87Q568.18 13.83 567.27 14.85L567.27 14.85L567.27 14.85Q566.36 15.88 564.73 15.88L564.73 15.88L564.73 15.88Q563.11 15.88 562.20 14.85L562.20 14.85L562.20 14.85Q561.29 13.83 561.29 11.87L561.29 11.87ZM564.73 14.78L564.73 14.78L564.73 14.78Q565.87 14.78 566.43 14.01L566.43 14.01L566.43 14.01Q567.00 13.23 567.00 11.79L567.00 11.79L567.00 9.77L567.00 9.77Q567.00 8.43 566.43 7.60L566.43 7.60L566.43 7.60Q565.87 6.78 564.73 6.78L564.73 6.78L564.73 6.78Q563.60 6.78 563.03 7.60L563.03 7.60L563.03 7.60Q562.46 8.43 562.46 9.77L562.46 9.77L562.46 11.79L562.46 11.79Q562.46 13.23 563.03 14.01L563.03 14.01L563.03 14.01Q563.60 14.78 564.73 14.78ZM580.36 14.78L580.36 14.78L580.36 14.78Q580.96 14.78 581.38 14.58L581.38 14.58L581.38 14.58Q581.81 14.38 582.08 14.04L582.08 14.04L582.08 14.04Q582.36 13.69 582.49 13.25L582.49 13.25L582.49 13.25Q582.62 12.81 582.62 12.32L582.62 12.32L582.62 12.15L583.80 12.15L583.80 12.32L583.80 12.32Q583.80 13.06 583.58 13.71L583.58 13.71L583.58 13.71Q583.35 14.36 582.92 14.85L582.92 14.85L582.92 14.85Q582.48 15.33 581.84 15.60L581.84 15.60L581.84 15.60Q581.20 15.88 580.36 15.88L580.36 15.88L580.36 15.88Q578.73 15.88 577.82 14.85L577.82 14.85L577.82 14.85Q576.91 13.83 576.91 11.87L576.91 11.87L576.91 9.69L576.91 9.69Q576.91 7.78 577.82 6.73L577.82 6.73L577.82 6.73Q578.73 5.68 580.36 5.68L580.36 5.68L580.36 5.68Q581.20 5.68 581.84 5.96L581.84 5.96L581.84 5.96Q582.48 6.23 582.92 6.71L582.92 6.71L582.92 6.71Q583.35 7.20 583.58 7.85L583.58 7.85L583.58 7.85Q583.80 8.50 583.80 9.24L583.80 9.24L583.80 9.41L582.62 9.41L582.62 9.24L582.62 9.24Q582.61 8.76 582.48 8.32L582.48 8.32L582.48 8.32Q582.34 7.87 582.07 7.53L582.07 7.53L582.07 7.53Q581.80 7.18 581.38 6.98L581.38 6.98L581.38 6.98Q580.96 6.78 580.36 6.78L580.36 6.78L580.36 6.78Q579.22 6.78 578.65 7.60L578.65 7.60L578.65 7.60Q578.09 8.43 578.09 9.77L578.09 9.77L578.09 11.79L578.09 11.79Q578.09 13.23 578.65 14.01L578.65 14.01L578.65 14.01Q579.22 14.78 580.36 14.78ZM592.90 15.68L592.90 5.88L598.84 5.88L598.84 6.97L594.08 6.97L594.08 10.22L598.75 10.22L598.75 11.31L594.08 11.31L594.08 14.59L598.92 14.59L598.92 15.68L592.90 15.68ZM613.75 9.21L613.75 8.71L613.75 8.71Q613.75 8.23 613.56 7.87L613.56 7.87L613.56 7.87Q613.37 7.50 613.05 7.27L613.05 7.27L613.05 7.27Q612.72 7.03 612.30 6.90L612.30 6.90L612.30 6.90Q611.88 6.78 611.42 6.78L611.42 6.78L611.42 6.78Q611.02 6.78 610.65 6.88L610.65 6.88L610.65 6.88Q610.29 6.99 610.00 7.18L610.00 7.18L610.00 7.18Q609.71 7.38 609.55 7.66L609.55 7.66L609.55 7.66Q609.38 7.95 609.38 8.33L609.38 8.33L609.38 8.41L609.38 8.41Q609.38 8.82 609.55 9.11L609.55 9.11L609.55 9.11Q609.71 9.39 610.04 9.60L610.04 9.60L610.04 9.60Q610.37 9.80 610.86 9.93L610.86 9.93L610.86 9.93Q611.35 10.07 612.01 10.16L612.01 10.16L612.01 10.16Q613.55 10.40 614.28 11.07L614.28 11.07L614.28 11.07Q615.01 11.73 615.01 12.85L615.01 12.85L615.01 13.02L615.01 13.02Q615.01 13.65 614.79 14.17L614.79 14.17L614.79 14.17Q614.57 14.70 614.14 15.08L614.14 15.08L614.14 15.08Q613.72 15.46 613.09 15.67L613.09 15.67L613.09 15.67Q612.46 15.88 611.63 15.88L611.63 15.88L611.63 15.88Q610.69 15.88 609.97 15.60L609.97 15.60L609.97 15.60Q609.25 15.33 608.77 14.85L608.77 14.85L608.77 14.85Q608.29 14.36 608.03 13.71L608.03 13.71L608.03 13.71Q607.78 13.06 607.78 12.29L607.78 12.29L607.78 11.87L608.96 11.87L608.96 12.21L608.96 12.21Q608.96 13.50 609.66 14.14L609.66 14.14L609.66 14.14Q610.37 14.78 611.63 14.78L611.63 14.78L611.63 14.78Q612.72 14.78 613.28 14.30L613.28 14.30L613.28 14.30Q613.83 13.82 613.83 13.02L613.83 13.02L613.83 12.94L613.83 12.94Q613.83 12.17 613.26 11.76L613.26 11.76L613.26 11.76Q612.70 11.35 611.42 11.17L611.42 11.17L611.42 11.17Q610.68 11.07 610.08 10.87L610.08 10.87L610.08 10.87Q609.49 10.67 609.07 10.34L609.07 10.34L609.07 10.34Q608.65 10.01 608.43 9.55L608.43 9.55L608.43 9.55Q608.20 9.09 608.20 8.46L608.20 8.46L608.20 8.29L608.20 8.29Q608.20 7.71 608.44 7.24L608.44 7.24L608.44 7.24Q608.68 6.76 609.10 6.41L609.10 6.41L609.10 6.41Q609.53 6.06 610.13 5.87L610.13 5.87L610.13 5.87Q610.72 5.68 611.44 5.68L611.44 5.68L611.44 5.68Q612.26 5.68 612.91 5.92L612.91 5.92L612.91 5.92Q613.56 6.16 614.01 6.56L614.01 6.56L614.01 6.56Q614.46 6.96 614.69 7.50L614.69 7.50L614.69 7.50Q614.92 8.04 614.92 8.62L614.92 8.62L614.92 9.21L613.75 9.21ZM629.31 9.21L629.31 8.71L629.31 8.71Q629.31 8.23 629.12 7.87L629.12 7.87L629.12 7.87Q628.94 7.50 628.61 7.27L628.61 7.27L628.61 7.27Q628.29 7.03 627.87 6.90L627.87 6.90L627.87 6.90Q627.45 6.78 626.99 6.78L626.99 6.78L626.99 6.78Q626.58 6.78 626.22 6.88L626.22 6.88L626.22 6.88Q625.86 6.99 625.57 7.18L625.57 7.18L625.57 7.18Q625.28 7.38 625.11 7.66L625.11 7.66L625.11 7.66Q624.95 7.95 624.95 8.33L624.95 8.33L624.95 8.41L624.95 8.41Q624.95 8.82 625.11 9.11L625.11 9.11L625.11 9.11Q625.28 9.39 625.61 9.60L625.61 9.60L625.61 9.60Q625.94 9.80 626.43 9.93L626.43 9.93L626.43 9.93Q626.92 10.07 627.58 10.16L627.58 10.16L627.58 10.16Q629.12 10.40 629.85 11.07L629.85 11.07L629.85 11.07Q630.57 11.73 630.57 12.85L630.57 12.85L630.57 13.02L630.57 13.02Q630.57 13.65 630.36 14.17L630.36 14.17L630.36 14.17Q630.14 14.70 629.71 15.08L629.71 15.08L629.71 15.08Q629.29 15.46 628.66 15.67L628.66 15.67L628.66 15.67Q628.03 15.88 627.20 15.88L627.20 15.88L627.20 15.88Q626.26 15.88 625.54 15.60L625.54 15.60L625.54 15.60Q624.82 15.33 624.34 14.85L624.34 14.85L624.34 14.85Q623.85 14.36 623.60 13.71L623.60 13.71L623.60 13.71Q623.35 13.06 623.35 12.29L623.35 12.29L623.35 11.87L624.53 11.87L624.53 12.21L624.53 12.21Q624.53 13.50 625.23 14.14L625.23 14.14L625.23 14.14Q625.94 14.78 627.20 14.78L627.20 14.78L627.20 14.78Q628.29 14.78 628.84 14.30L628.84 14.30L628.84 14.30Q629.40 13.82 629.40 13.02L629.40 13.02L629.40 12.94L629.40 12.94Q629.40 12.17 628.83 11.76L628.83 11.76L628.83 11.76Q628.26 11.35 626.99 11.17L626.99 11.17L626.99 11.17Q626.25 11.07 625.65 10.87L625.65 10.87L625.65 10.87Q625.06 10.67 624.64 10.34L624.64 10.34L624.64 10.34Q624.22 10.01 623.99 9.55L623.99 9.55L623.99 9.55Q623.77 9.09 623.77 8.46L623.77 8.46L623.77 8.29L623.77 8.29Q623.77 7.71 624.01 7.24L624.01 7.24L624.01 7.24Q624.25 6.76 624.67 6.41L624.67 6.41L624.67 6.41Q625.10 6.06 625.69 5.87L625.69 5.87L625.69 5.87Q626.29 5.68 627.00 5.68L627.00 5.68L627.00 5.68Q627.83 5.68 628.48 5.92L628.48 5.92L628.48 5.92Q629.13 6.16 629.58 6.56L629.58 6.56L629.58 6.56Q630.03 6.96 630.26 7.50L630.26 7.50L630.26 7.50Q630.49 8.04 630.49 8.62L630.49 8.62L630.49 9.21L629.31 9.21Z"></path></g></svg>